<?xml version="1.0" encoding="UTF-8"?>
<svg width="160px" height="160px" viewBox="0 0 160 160" version="1.1" xmlns="http://www.w3.org/2000/svg" xmlns:xlink="http://www.w3.org/1999/xlink">
    <!-- Generator: Sketch 44.1 (41455) - http://www.bohemiancoding.com/sketch -->
    <title>Speech Copy</title>
    <desc>Created with Sketch.</desc>
    <defs></defs>
    <g id="Pages" stroke="none" stroke-width="1" fill="none" fill-rule="evenodd">
        <g id="Gesture">
            <rect id="Rectangle-4" fill="#69F0AE" x="0" y="0" width="160" height="160" rx="2"></rect>
            <g id="noun_1025754_cc" stroke-width="1" transform="translate(33.333333, 33.333333)" fill="#FFFFFF">
                <g id="Group" transform="translate(0.000000, 0.711770)">
                    <path d="M40.1425865,0.404149565 C43.164951,0.404149565 45.657024,2.89982 45.657024,5.94898652 L45.657024,45.4254246 C45.657024,45.9783739 45.8222531,46.2252203 46.0149823,46.4018739 C46.207826,46.5785275 46.5008156,46.6855464 46.8028573,46.6808594 C47.406826,46.6697 47.9486906,46.4372493 47.9486906,45.4254246 L47.9486906,17.4920119 C47.9486906,14.45136 50.414524,11.9820481 53.427149,11.9820481 C56.430149,11.9820481 58.9056073,14.4503333 58.9056073,17.4920119 L58.9056073,45.4254246 C58.9056073,45.9499174 59.0633885,46.2168507 59.2637948,46.4018739 C59.4639719,46.5868971 59.7497427,46.6797435 60.0514406,46.6808594 C60.3532531,46.6819754 60.641774,46.5837725 60.8393156,46.4018739 C61.0366281,46.2201986 61.197274,45.9617464 61.197274,45.4254246 L61.197274,29.17453 C61.197274,26.1208439 63.712149,23.6645662 66.7117115,23.6645662 C69.7206698,23.6645662 72.1901698,26.1324274 72.1901698,29.17453 L72.1901698,88.4938681 C72.1901698,90.3891841 70.6342427,91.9114406 68.7884198,91.9114406 L26.0703781,91.9114406 L25.4258469,91.9114406 L25.103524,91.388287 L2.4733099,54.9458609 C1.2055599,52.9033522 0.960351562,51.1794449 1.25597656,49.8891928 C1.54965365,48.6074217 2.40753906,47.6018464 3.51177865,47.0295913 C4.6079974,46.4615768 5.99216406,46.2233232 7.41483073,46.611113 C8.83726823,46.9990145 10.2215495,48.0286942 11.2820182,49.7497 L19.0878932,62.4435406 L19.1237578,62.4435406 C19.5421016,63.1491507 19.9525391,63.1594174 20.4486849,63.0015116 C20.9448307,62.8437174 21.3795599,62.4234536 21.3795599,61.7810058 L21.3795599,14.9462691 C21.3795599,11.8950828 23.8810344,9.43630536 26.8940031,9.43630536 C29.9065135,9.43630536 32.3724615,11.9055503 32.3724615,14.9462691 L32.3724615,45.4254246 C32.3724615,45.9553855 32.5317323,46.2187478 32.7305344,46.4018739 C32.9292219,46.585 33.2163677,46.6808594 33.5182948,46.6808594 C33.8202219,46.6808594 34.1071385,46.5848884 34.3060552,46.4018739 C34.5049719,46.2186362 34.6641281,45.9548275 34.6641281,45.4254246 L34.6641281,14.9462691 L34.6641281,5.94898652 C34.6641281,2.90585725 37.1317948,0.404149565 40.1425865,0.404149565 L40.1425865,0.404149565 Z" id="Shape"></path>
                </g>
            </g>
        </g>
    </g>
</svg>